<?xml version="1.0" encoding="UTF-8" standalone="no"?>
<!-- Created with Inkscape (http://www.inkscape.org/) -->

<svg
   width="15.092mm"
   height="15.092mm"
   viewBox="0 0 15.092 15.092"
   version="1.1"
   id="svg5"
   xml:space="preserve"
   inkscape:version="1.2.2 (b0a8486541, 2022-12-01)"
   sodipodi:docname="logo.svg"
   xmlns:inkscape="http://www.inkscape.org/namespaces/inkscape"
   xmlns:sodipodi="http://sodipodi.sourceforge.net/DTD/sodipodi-0.dtd"
   xmlns:xlink="http://www.w3.org/1999/xlink"
   xmlns="http://www.w3.org/2000/svg"
   xmlns:svg="http://www.w3.org/2000/svg"><sodipodi:namedview
     id="namedview7"
     pagecolor="#ffffff"
     bordercolor="#000000"
     borderopacity="0.25"
     inkscape:showpageshadow="2"
     inkscape:pageopacity="0.0"
     inkscape:pagecheckerboard="0"
     inkscape:deskcolor="#d1d1d1"
     inkscape:document-units="mm"
     showgrid="false"
     inkscape:zoom="3.5669753"
     inkscape:cx="52.845894"
     inkscape:cy="12.195206"
     inkscape:window-width="2494"
     inkscape:window-height="1371"
     inkscape:window-x="1986"
     inkscape:window-y="32"
     inkscape:window-maximized="1"
     inkscape:current-layer="layer1" /><defs
     id="defs2"><linearGradient
       inkscape:collect="always"
       id="linearGradient5534"><stop
         style="stop-color:#003aff;stop-opacity:1;"
         offset="0.84133816"
         id="stop5530" /><stop
         style="stop-color:#07bcff;stop-opacity:0;"
         offset="1"
         id="stop5532" /></linearGradient><radialGradient
       inkscape:collect="always"
       xlink:href="#linearGradient5534"
       id="radialGradient5538"
       cx="47.839077"
       cy="65.709"
       fx="47.839077"
       fy="65.709"
       r="7.9462495"
       gradientUnits="userSpaceOnUse"
       gradientTransform="translate(-40.293079,-58.163)" /></defs><g
     inkscape:label="Layer 1"
     inkscape:groupmode="layer"
     id="layer1"><rect
       style="fill:#0f172a;fill-opacity:1;stroke:url(#radialGradient5538);stroke-width:0.8;stroke-linecap:round;stroke-dasharray:none;stroke-opacity:1"
       id="rect2271"
       width="15.092499"
       height="15.092499"
       x="-0.00025138201"
       y="-0.00024938202"
       ry="2.1056173" /><g
       aria-label="CB"
       id="text236"
       style="font-weight:bold;font-size:14.1111px;font-family:'Agency FB';-inkscape-font-specification:'Agency FB Bold';text-align:center;text-anchor:middle;fill:#0ea5e9;fill-opacity:1;stroke:none;stroke-width:1.301;stroke-linecap:round;stroke-opacity:1"
       transform="translate(-40.293079,-58.163)"><path
         d="m 52.629745,70.115343 c 0,0.656864 -0.328432,0.985296 -0.985297,0.985296 H 47.338 l 8.2e-5,-10.78314 h 4.278806 c 0.63849,0 0.957735,0.330729 0.957735,0.992187 v 2.776744 c 0,0.367477 -0.114836,0.652271 -0.344509,0.854383 -0.03215,0.02756 -0.312354,0.204408 -0.840603,0.530545 0.546622,0.335322 0.83601,0.51906 0.868164,0.551215 0.248047,0.215892 0.37207,0.51217 0.37207,0.888833 z M 50.96921,64.286246 v -2.611381 h -2.018824 v 3.162596 h 1.240233 z m 0.04134,5.457027 V 66.67025 l -0.79237,-0.523654 h -1.267794 v 3.596677 z"
         id="path398"
         style="fill:#0ea5e9;fill-opacity:1;stroke:none;stroke-opacity:1"
         sodipodi:nodetypes="ssccssscccsscccccccccccc" /><path
         d="m 47.338,71.101 v 0 l -3.331851,-3.61e-4 c -0.638491,-6.9e-5 -0.957736,-0.328432 -0.957736,-0.985296 v -8.805657 c 0,-0.661458 0.319245,-0.992092 0.957736,-0.992187 L 47.368556,60.317 h 0.985296 v 1.385 h -1.605413 v 0 l -2.087726,4.26e-4 v 8.013286 h 2.087726 v 5.9e-4 H 47.338 Z"
         id="path396"
         sodipodi:nodetypes="ccssssccccccccccc"
         style="fill:#0f17ff;fill-opacity:1;stroke:none;stroke-opacity:1" /><path
         d="m 47.338082,60.317499 h 4.278806 c 0.63849,0 0.957735,0.330729 0.957735,0.992187 v 2.776744 c 0,0.367477 -0.114836,0.652271 -0.344509,0.854383 -3.656415,0.301225 -4.892032,2.349287 -4.892032,-4.623314 z m 3.631128,3.968747 v -2.611381 h -2.018824 v 3.162596 h 1.240233 z"
         id="path398-7"
         style="font-weight:bold;font-size:14.1111px;font-family:'Agency FB';-inkscape-font-specification:'Agency FB Bold';text-align:center;text-anchor:middle;fill:#0ea5e9;fill-opacity:1;stroke:none;stroke-width:1.301;stroke-linecap:round;stroke-opacity:1"
         sodipodi:nodetypes="cssscccccccc" /></g></g></svg>
